<svg width="15" height="40" viewBox="0 0 15 40" fill="none" xmlns="http://www.w3.org/2000/svg">
<g clip-path="url(#clip0)">
<path d="M12.0909 38.7273H7.77271V26.9091C11.3636 26.6364 14.2273 23.5455 14.2273 19.7727V19.7273L13.6363 8.59092V8.54547C13.6363 8.50002 13.6363 8.45456 13.6363 8.40911L13.1818 0.545471C13.1818 0.272744 12.9091 0.0454712 12.6363 0.0454712H1.90907C1.63634 0.0454712 1.40907 0.272744 1.36361 0.545471L0.909069 8.40911C0.909069 8.45456 0.909069 8.50002 0.909069 8.50002V8.54547L0.272705 19.6818C0.272705 19.7273 0.272705 19.7273 0.272705 19.7727C0.272705 23.5455 3.13634 26.5909 6.72725 26.8637V38.7273H2.40907C2.09089 38.7273 1.86361 38.9546 1.86361 39.2727C1.86361 39.5909 2.09089 39.8182 2.40907 39.8182H12.0909C12.4091 39.8182 12.6363 39.5909 12.6363 39.2727C12.6363 38.9546 12.4091 38.7273 12.0909 38.7273ZM2.40907 1.13638H12.1363L12.5 8.00002H1.99998L2.40907 1.13638ZM1.36361 19.7727C1.36361 19.7273 1.36361 19.7273 1.36361 19.7727L1.95452 9.09092H12.5909L13.1818 19.7727L13.7273 19.7273L13.1818 19.7727C13.1818 23.1364 10.5454 25.8637 7.27271 25.8637C3.99998 25.8637 1.36361 23.1364 1.36361 19.7727Z" fill="#D4652E"/>
<path d="M4.27273 12.2273C4.69949 12.2273 5.04545 11.8813 5.04545 11.4546C5.04545 11.0278 4.69949 10.6818 4.27273 10.6818C3.84596 10.6818 3.5 11.0278 3.5 11.4546C3.5 11.8813 3.84596 12.2273 4.27273 12.2273Z" fill="#D4652E"/>
<path d="M4.27273 14.7727C4.69949 14.7727 5.04545 14.4268 5.04545 14C5.04545 13.5733 4.69949 13.2273 4.27273 13.2273C3.84596 13.2273 3.5 13.5733 3.5 14C3.5 14.4268 3.84596 14.7727 4.27273 14.7727Z" fill="#D4652E"/>
<path d="M6.45461 13.5C6.88138 13.5 7.22734 13.154 7.22734 12.7273C7.22734 12.3005 6.88138 11.9545 6.45461 11.9545C6.02785 11.9545 5.68188 12.3005 5.68188 12.7273C5.68188 13.154 6.02785 13.5 6.45461 13.5Z" fill="#D4652E"/>
</g>
<defs>
<clipPath id="clip0">
<rect width="14.5455" height="40" fill="white"/>
</clipPath>
</defs>
</svg>
