<svg width="40" height="42" viewBox="0 0 40 42" fill="none" xmlns="http://www.w3.org/2000/svg">
<g clip-path="url(#clip0)">
<path d="M32.4051 0.000174667C29.206 0.0239325 26.6419 2.43601 26.2947 5.49611H0.69099C0.554223 5.49614 0.42055 5.53676 0.306874 5.6128C0.193197 5.68885 0.104624 5.79691 0.0523893 5.92331C0.000154973 6.04971 -0.0133977 6.18876 0.0134323 6.32287C0.0402622 6.45698 0.106279 6.58012 0.203121 6.67669L15.1869 21.7548V34.8248L9.94162 38.7574C9.826 38.8448 9.74076 38.9663 9.69799 39.1048C9.65521 39.2433 9.65704 39.3917 9.70323 39.5291C9.74942 39.6665 9.83764 39.7859 9.9554 39.8704C10.0732 39.9549 10.2145 40.0002 10.3594 40H24.1518C24.2967 40.0002 24.4381 39.9549 24.5558 39.8704C24.6736 39.7859 24.7618 39.6665 24.808 39.5291C24.8542 39.3917 24.856 39.2433 24.8132 39.1048C24.7705 38.9663 24.6852 38.8448 24.5696 38.7574L19.3243 34.8248V21.7548L29.4186 11.5985C30.3402 12.1118 31.3737 12.3987 32.4348 12.399C35.857 12.399 38.645 9.61105 38.645 6.18883C38.645 2.76661 35.8524 -0.0254266 32.4051 0.000174667ZM32.4134 1.38292C35.1142 1.36286 37.265 3.51361 37.265 6.18883C37.265 8.86404 35.11 11.019 32.4348 11.019C31.769 11.0188 31.1767 10.6998 30.5723 10.4368L31.3701 9.63355L31.7933 9.20768C31.8445 9.33589 31.933 9.44579 32.0474 9.52315C32.1618 9.60052 32.2967 9.64179 32.4348 9.64164C32.5259 9.642 32.6161 9.62432 32.7003 9.58964C32.7845 9.55495 32.861 9.50394 32.9254 9.43954C32.9898 9.37515 33.0408 9.29864 33.0755 9.21443C33.1102 9.13023 33.1279 9.03999 33.1275 8.94892V7.86537L33.133 7.85997L33.9012 8.62277C34.0303 8.74969 34.204 8.82081 34.385 8.82081C34.5661 8.82081 34.7398 8.74969 34.8689 8.62277C34.9958 8.49372 35.0669 8.31996 35.0669 8.13895C35.0669 7.95794 34.9958 7.78418 34.8689 7.65512L34.1007 6.88424L34.1034 6.88154H35.1949C35.286 6.8819 35.3762 6.86423 35.4604 6.82954C35.5446 6.79485 35.6211 6.74384 35.6855 6.67945C35.7499 6.61505 35.8009 6.53854 35.8356 6.45434C35.8703 6.37013 35.888 6.27989 35.8876 6.18883C35.888 6.09776 35.8703 6.00752 35.8356 5.92331C35.8009 5.83911 35.7499 5.7626 35.6855 5.69821C35.6211 5.63381 35.5446 5.5828 35.4604 5.54811C35.3762 5.51343 35.286 5.49575 35.1949 5.49611H34.1006L34.8687 4.72253C34.9957 4.59347 35.0668 4.41971 35.0668 4.2387C35.0668 4.05769 34.9957 3.88393 34.8687 3.75488C34.7945 3.67827 34.7036 3.6199 34.6031 3.58436C34.5025 3.54882 34.3951 3.53706 34.2892 3.55002C34.141 3.57425 34.0047 3.64617 33.9011 3.75488L33.1275 4.52576V3.42873C33.1279 3.33766 33.1102 3.24742 33.0755 3.16322C33.0408 3.07901 32.9898 3.00251 32.9254 2.93811C32.861 2.87372 32.7845 2.8227 32.7003 2.78802C32.6161 2.75333 32.5259 2.73566 32.4348 2.73601C32.3437 2.73566 32.2535 2.75333 32.1693 2.78802C32.0851 2.8227 32.0086 2.87372 31.9442 2.93811C31.8798 3.00251 31.8288 3.07901 31.7941 3.16322C31.7594 3.24742 31.7417 3.33766 31.7421 3.42873V4.52576L30.9685 3.75488C30.894 3.67788 30.8026 3.61928 30.7016 3.58373C30.6005 3.54817 30.4926 3.53663 30.3863 3.55002C30.239 3.5748 30.1038 3.64668 30.0008 3.75488C29.8739 3.88393 29.8028 4.05769 29.8028 4.2387C29.8028 4.41971 29.8739 4.59347 30.0008 4.72253L30.7717 5.49611H27.7421C28.0839 3.1932 29.9561 1.40117 32.4132 1.38292H32.4134ZM2.35155 6.88155H32.1493L31.9875 7.04327C31.9573 7.06868 31.9294 7.09663 31.9039 7.12683L18.1412 20.992C18.0145 21.1188 17.942 21.2899 17.939 21.4691V35.1725C17.9406 35.2801 17.9672 35.3858 18.0168 35.4813C18.0664 35.5767 18.1376 35.6593 18.2247 35.7224L22.0738 38.6146H12.4269L16.2867 35.7224C16.3719 35.6582 16.441 35.5751 16.4887 35.4797C16.5364 35.3843 16.5614 35.2792 16.5617 35.1725V21.4691C16.5616 21.2914 16.493 21.1205 16.3703 20.992L2.35155 6.88155ZM11.7154 7.47184C10.4132 7.52058 8.98314 7.75972 7.37309 8.29663C7.26125 8.33346 7.16069 8.39825 7.08091 8.48485C7.00114 8.57145 6.94479 8.67699 6.91725 8.79147C6.88971 8.90595 6.89189 9.02557 6.92355 9.13897C6.95521 9.25238 7.01531 9.35582 7.09816 9.43949L16.7666 19.0971C16.8308 19.1615 16.907 19.2125 16.991 19.2473C17.0749 19.2821 17.1649 19.3001 17.2558 19.3001C17.3467 19.3001 17.4367 19.2821 17.5206 19.2473C17.6046 19.2125 17.6808 19.1615 17.745 19.0971L27.4027 9.43949C27.5136 9.32903 27.5839 9.18417 27.6018 9.02861C27.6197 8.87305 27.5842 8.71602 27.5012 8.58324C27.4182 8.45045 27.2926 8.34978 27.145 8.29772C26.9973 8.24565 26.8363 8.24527 26.6884 8.29663C24.6948 8.96114 23.0781 9.11167 21.6048 9.02978C20.1317 8.94789 18.7991 8.6227 17.4189 8.27777C16.0387 7.93247 14.6085 7.57327 12.9768 7.48262C12.5689 7.46006 12.1494 7.45559 11.7154 7.47184V7.47184ZM12.9068 8.85728C14.3801 8.93917 15.7021 9.27758 17.0819 9.62277C18.4619 9.96755 19.8921 10.3274 21.524 10.4179C22.5268 10.4737 23.7899 10.1283 24.9687 9.91657L17.2571 17.6281L9.04424 9.41792C10.4292 9.08828 11.79 8.79536 12.9068 8.85728V8.85728Z" fill="#D4652E"/>
</g>
<defs>
<clipPath id="clip0">
<rect width="40" height="41.0256" fill="white"/>
</clipPath>
</defs>
</svg>
