<svg width="25" height="40" viewBox="0 0 25 40" fill="none" xmlns="http://www.w3.org/2000/svg">
<g clip-path="url(#clip0)">
<path fill-rule="evenodd" clip-rule="evenodd" d="M8.58233 23.3805C8.4263 23.3805 8.30251 23.2436 8.30251 23.0779C8.30251 22.9122 8.4263 22.7754 8.58233 22.7754C8.73835 22.7754 8.86214 22.9122 8.86214 23.0779C8.86214 23.2436 8.73835 23.3805 8.58233 23.3805ZM8.58233 22.3151C8.19703 22.3151 7.88718 22.6585 7.88718 23.0779C7.88718 23.4974 8.19703 23.8407 8.58233 23.8407C8.96762 23.8407 9.27747 23.4974 9.27747 23.0779C9.27747 22.6585 8.96762 22.3151 8.58233 22.3151ZM18.8034 6.56071V8.74347H18.7675H18.2218C18.2489 8.00708 18.276 7.27069 18.3031 6.5303H18.7778C18.7939 6.5303 18.8034 6.5415 18.8034 6.56071ZM18.7778 38.9594H7.432C7.41588 38.9594 7.40563 38.949 7.40563 38.9298V36.8495H7.63783H18.8034V38.9298C18.8034 38.9442 18.7895 38.9594 18.7778 38.9594ZM3.56217 10.0858L4.85578 7.03536L5.83221 10.2387C5.53774 10.3147 5.24034 10.3643 4.94514 10.3643C4.45803 10.3643 3.99362 10.2627 3.56217 10.0858ZM1.35074 7.855L4.14964 6.67437L2.86263 9.70878C2.21143 9.26614 1.68476 8.6226 1.35074 7.855ZM3.29408 1.91105L4.24121 5.0191L1.55877 3.60075C1.97337 2.86436 2.57622 2.27365 3.29408 1.91105ZM6.23216 1.76378L4.97518 4.72774L4.03171 1.63251C4.32544 1.55647 4.63017 1.51164 4.94514 1.51164C5.3971 1.51164 5.82562 1.61009 6.23216 1.76378ZM8.49486 3.92812L5.66813 5.11995L6.94049 2.11916C7.60194 2.54499 8.14399 3.16852 8.49486 3.92812ZM7.432 5.48975C7.00495 5.48975 6.64895 5.79871 6.5171 6.22133L5.94208 5.91797L8.77908 4.72134C8.8428 4.96947 8.88236 5.22641 8.90653 5.48975H7.432ZM14.7622 8.74347H14.4626L13.2986 8.28002C12.9763 8.15195 12.6181 8.33765 12.4995 8.69464L12.4834 8.74347H12.2438H7.40563V6.56071C7.40563 6.54631 7.42028 6.5303 7.432 6.5303H17.2036C17.1765 7.27069 17.1494 8.00708 17.1223 8.74347H14.7622ZM17.0798 9.90008C17.0571 9.86886 17.0373 9.83524 17.0095 9.80883H17.0835C17.082 9.83925 17.0813 9.86966 17.0798 9.90008ZM11.3026 18.6463L9.75624 15.4678L11.997 14.1655L12.5354 13.8526L12.6511 13.899L13.0108 14.6386L14.1549 16.9894L11.3026 18.6463ZM13.24 9.27895L16.2755 10.486L15.1482 13.8702L14.0399 13.4291L13.2686 13.1226L13.2635 13.1122C13.1089 12.7944 12.7727 12.6783 12.4826 12.8096L12.1127 12.6623L13.24 9.27895ZM6.45337 9.57991L5.56558 6.66557L6.45117 7.13382L6.45337 7.13542V9.57991ZM0.952257 5.93798C0.952257 5.38329 1.04822 4.85501 1.21596 4.36675L3.98483 5.82993L1.08557 7.05297C1.00207 6.69598 0.952257 6.32379 0.952257 5.93798ZM18.8034 35.7842H7.63783H7.40563V9.80883H12.1281L11.2015 12.5903C11.0997 12.8969 11.2169 13.2218 11.4564 13.3915L9.1131 14.753C8.80911 14.9299 8.69704 15.3382 8.85819 15.6679L10.6484 19.3483C10.8118 19.6837 11.1854 19.8029 11.4886 19.6268L14.7951 17.7058C15.0947 17.5313 15.2141 17.1207 15.0552 16.7933L13.8854 14.3897L15.0889 14.8683C15.4104 14.9964 15.7701 14.8115 15.8888 14.4545L17.0395 10.9999C16.9853 12.4798 16.9319 13.939 16.8806 15.351C16.8784 15.3982 16.8784 15.3982 16.8769 15.4446C16.5414 24.5999 16.3539 29.7794 16.3539 29.9019C16.3539 30.2332 16.5993 30.5022 16.9033 30.5022C17.2066 30.5022 17.4527 30.2332 17.4527 29.9019C17.4527 29.8066 17.6563 24.1924 17.975 15.4926C17.9764 15.4462 17.9764 15.4462 17.9779 15.399C18.0445 13.594 18.1134 11.7146 18.183 9.80883H18.7675H18.8034V35.7842ZM24.5104 3.5055L18.7858 0.144519C18.12 -0.246088 17.4366 0.192544 17.4065 1.01058C17.3985 1.2339 17.3985 1.2339 17.3611 2.24083C17.312 3.58314 17.2849 4.31072 17.2417 5.48574V5.48975H9.87051C9.66321 2.66905 7.52869 0.471092 4.94514 0.471092C2.2129 0.471092 0 2.92039 0 5.93798C0 8.95558 2.2129 11.4049 4.94514 11.4049C5.45131 11.4049 5.96259 11.3096 6.45337 11.1359V38.9298C6.45337 39.5253 6.89141 40 7.432 40H18.7778C19.3132 40 19.7557 39.5205 19.7557 38.9298V6.56071C19.7557 5.9644 19.3176 5.48975 18.7778 5.48975H18.3412C18.3837 4.34114 18.4101 3.61355 18.4591 2.28885C18.4796 1.73016 18.4884 1.48523 18.4943 1.33635L23.9903 4.56286C24.2576 4.71974 24.5909 4.61088 24.7345 4.31873C24.8781 4.02657 24.7777 3.66238 24.5104 3.5055ZM11.2933 26.1836L13.605 25.6001L14.1515 28.1838L11.839 28.7673L11.2933 26.1836ZM14.4027 25.1054C14.3258 24.7404 13.9947 24.5163 13.6614 24.6003L10.8413 25.3119C10.5029 25.3968 10.3014 25.7577 10.3776 26.1211L11.0413 29.262C11.1189 29.627 11.45 29.8511 11.7833 29.7671L14.6027 29.0555C14.9411 28.9706 15.1433 28.6097 15.0664 28.2463L14.4027 25.1054ZM8.96557 11.7479C9.1216 11.7479 9.24539 11.8847 9.24539 12.0504C9.24539 12.2161 9.1216 12.353 8.96557 12.353C8.80955 12.353 8.68576 12.2161 8.68576 12.0504C8.68576 11.8847 8.80955 11.7479 8.96557 11.7479ZM8.96557 12.8132C9.35087 12.8132 9.66072 12.4698 9.66072 12.0504C9.66072 11.631 9.35087 11.2876 8.96557 11.2876C8.58027 11.2876 8.27042 11.631 8.27042 12.0504C8.27042 12.4698 8.58027 12.8132 8.96557 12.8132ZM13.3606 33.1641C13.2046 33.1641 13.0808 33.0272 13.0808 32.8615C13.0808 32.6958 13.2046 32.5589 13.3606 32.5589C13.5166 32.5589 13.6404 32.6958 13.6404 32.8615C13.6404 33.0272 13.5166 33.1641 13.3606 33.1641ZM13.3606 32.0987C12.9753 32.0987 12.6655 32.4421 12.6655 32.8615C12.6655 33.2809 12.9753 33.6243 13.3606 33.6243C13.7459 33.6243 14.0558 33.2809 14.0558 32.8615C14.0558 32.4421 13.7459 32.0987 13.3606 32.0987ZM15.0254 21.0798C14.8694 21.0798 14.7456 20.943 14.7456 20.7773C14.7456 20.6116 14.8694 20.4747 15.0254 20.4747C15.1815 20.4747 15.3053 20.6116 15.3053 20.7773C15.3053 20.943 15.1815 21.0798 15.0254 21.0798ZM15.0254 20.0145C14.6401 20.0145 14.3303 20.3579 14.3303 20.7773C14.3303 21.1967 14.6401 21.5401 15.0254 21.5401C15.4107 21.5401 15.7206 21.1967 15.7206 20.7773C15.7206 20.3579 15.4107 20.0145 15.0254 20.0145Z" fill="#D4652E"/>
</g>
<defs>
<clipPath id="clip0">
<rect width="24.8" height="40" fill="white"/>
</clipPath>
</defs>
</svg>
