<svg width="24" height="26" viewBox="0 0 24 26" fill="none" xmlns="http://www.w3.org/2000/svg">
<path d="M23.84 0.799976C23.72 0.679976 23.56 0.599976 23.4 0.599976H0.6C0.44 0.599976 0.28 0.679976 0.16 0.799976C0.0399998 0.919976 0 1.07998 0 1.23998L0.84 23.56C0.92 24.6 1.8 25.4 2.84 25.4H21.52C22.56 25.4 23.44 24.6 23.52 23.56V23.52L24 1.23998C24 1.07998 23.92 0.919976 23.84 0.799976ZM22.32 23.48C22.28 23.88 21.92 24.2 21.52 24.2H2.84C2.44 24.2 2.08 23.88 2.04 23.48L1.24 1.79998H22.8L22.32 23.48Z" fill="#D4652E"/>
<path d="M3.24001 23.36H18.24H21.16C21.36 23.36 21.56 23.2 21.56 22.96L21.68 13.88C21.68 13.76 21.64 13.68 21.56 13.6C21.48 13.52 21.4 13.48 21.28 13.48H20.68L21.28 10.64C21.32 10.4 21.28 10.12 21.16 9.91997C21 9.71997 20.8 9.55997 20.56 9.51997L13.16 7.99997C12.64 7.87997 12.12 8.23997 12.04 8.75997L11.56 11.08H5.56001C5.04001 11.08 4.60001 11.52 4.60001 12.04V13.48H3.16001C3.04001 13.48 2.96001 13.52 2.88001 13.6C2.80001 13.68 2.76001 13.76 2.76001 13.88L2.88001 22.96C2.84001 23.2 3.04001 23.36 3.24001 23.36ZM12.32 12.08L12.52 11.08L12.96 8.99997L20.28 10.52L19.68 13.52H14.04H13.04H12.04L12.32 12.08ZM11.88 14.28H13.04H14.04H19.52L18.76 17.8L14 16.84L13.04 16.6L11.48 16.28L11.88 14.28ZM5.56001 14.28H6.48001C6.72001 14.28 6.88001 14.12 6.88001 13.88C6.88001 13.64 6.72001 13.48 6.48001 13.48H5.56001V12.08H11.28L11 13.48H8.88001C8.64001 13.48 8.48001 13.64 8.48001 13.88C8.48001 14.12 8.64001 14.28 8.88001 14.28H10.84L10.44 16.12C10.32 16.64 10.68 17.16 11.2 17.24L13 17.6V19.52H5.56001V14.28ZM4.56001 14.28V19.6C4.56001 20.12 5.00001 20.56 5.52001 20.56H13.04C13.56 20.56 14 20.12 14 19.6V17.88L18.56 18.84C18.64 18.84 18.68 18.84 18.76 18.84C18.96 18.84 19.12 18.8 19.28 18.68C19.48 18.52 19.64 18.32 19.68 18.08L20.44 14.32H20.8L20.68 22.6H18.16H3.64001L3.52001 14.32H4.56001V14.28Z" fill="#D4652E"/>
</svg>
