<svg width="25" height="25" viewBox="0 0 25 25" fill="none" xmlns="http://www.w3.org/2000/svg">
<path d="M24.0323 0.201613C23.9113 0.0806452 23.75 0 23.5887 0H0.604839C0.443548 0 0.282258 0.0806452 0.16129 0.201613C0.0403224 0.322581 0 0.483871 0 0.645161L0.846774 23.1452C0.92742 24.1935 1.81452 25 2.8629 25H21.6936C22.7419 25 23.629 24.1935 23.7097 23.1452V23.1048L24.1936 0.645161C24.1936 0.483871 24.1129 0.322581 24.0323 0.201613ZM22.5 23.0645C22.4597 23.4677 22.0968 23.7903 21.6936 23.7903H2.8629C2.45968 23.7903 2.09677 23.4677 2.05645 23.0645L1.25 1.20968H22.9839L22.5 23.0645Z" fill="#D4652E"/>
<path d="M3.2661 22.9436H18.3871H21.3306C21.5322 22.9436 21.7338 22.7823 21.7338 22.5403L21.8548 13.3871C21.8548 13.2661 21.8145 13.1855 21.7338 13.1049C21.6532 13.0242 21.5725 12.9839 21.4516 12.9839H20.8467L21.4516 10.121C21.4919 9.87905 21.4516 9.59679 21.3306 9.39518C21.1693 9.19357 20.9677 9.03228 20.7258 8.99195L13.2661 7.45969C12.7419 7.33873 12.2177 7.70163 12.1371 8.22582L11.6532 10.5645H5.60481C5.08061 10.5645 4.63707 11.0081 4.63707 11.5323V12.9839H3.18545C3.06448 12.9839 2.98384 13.0242 2.90319 13.1049C2.82255 13.1855 2.78223 13.2661 2.78223 13.3871L2.90319 22.5403C2.86287 22.7823 3.06448 22.9436 3.2661 22.9436ZM12.4193 11.5726L12.6209 10.5645L13.0645 8.46776L20.4435 10L19.8387 13.0242H14.1532H13.1451H12.1371L12.4193 11.5726ZM11.9758 13.7903H13.1451H14.1532H19.6774L18.9113 17.3387L14.1129 16.371L13.1451 16.129L11.5726 15.8065L11.9758 13.7903ZM5.60481 13.7903H6.53223C6.77416 13.7903 6.93545 13.629 6.93545 13.3871C6.93545 13.1452 6.77416 12.9839 6.53223 12.9839H5.60481V11.5726H11.3709L11.0887 12.9839H8.95158C8.70965 12.9839 8.54836 13.1452 8.54836 13.3871C8.54836 13.629 8.70965 13.7903 8.95158 13.7903H10.9274L10.5242 15.6452C10.4032 16.1694 10.7661 16.6936 11.2903 16.7742L13.1048 17.1371V19.0726H5.60481V13.7903ZM4.59674 13.7903V19.1532C4.59674 19.6774 5.04029 20.121 5.56448 20.121H13.1451C13.6693 20.121 14.1129 19.6774 14.1129 19.1532V17.4194L18.7096 18.3871C18.7903 18.3871 18.8306 18.3871 18.9113 18.3871C19.1129 18.3871 19.2742 18.3468 19.4355 18.2258C19.6371 18.0645 19.7984 17.8629 19.8387 17.621L20.6048 13.8307H20.9677L20.8467 22.1774H18.3064H3.66932L3.54836 13.8307H4.59674V13.7903Z" fill="#D4652E"/>
</svg>
