<svg width="16" height="16" viewBox="0 0 16 16" fill="none" xmlns="http://www.w3.org/2000/svg">
<g clip-path="url(#clip0)">
<path d="M15.8316 14.8829L11.1573 10.2058C12.1617 8.98557 12.6574 7.42535 12.5415 5.84921C12.4256 4.27307 11.7069 2.80216 10.5348 1.74203C9.36275 0.681906 7.82731 0.11406 6.24748 0.156449C4.66765 0.198839 3.16487 0.848206 2.05131 1.96966C0.937757 3.09111 0.299026 4.59844 0.267802 6.17853C0.236579 7.75862 0.815263 9.29001 1.88364 10.4546C2.95203 11.6191 4.42798 12.3274 6.0049 12.4321C7.58182 12.5369 9.1385 12.0302 10.3516 11.0172L15.0258 15.6886C15.1352 15.7822 15.2758 15.8311 15.4196 15.8256C15.5634 15.82 15.6998 15.7604 15.8016 15.6586C15.9034 15.5569 15.963 15.4205 15.9685 15.2766C15.9741 15.1328 15.9252 14.9922 15.8316 14.8829ZM1.42869 6.31147C1.4283 5.4928 1.62917 4.68659 2.01361 3.9638C2.39805 3.24101 2.95427 2.62381 3.63332 2.16653C4.31237 1.70925 5.09343 1.4259 5.90772 1.34144C6.72202 1.25698 7.5446 1.37399 8.30305 1.68217C9.06149 1.99036 9.73255 2.48026 10.2571 3.10876C10.7817 3.73726 11.1438 4.48508 11.3114 5.2864C11.4791 6.08772 11.4472 6.91797 11.2185 7.70405C10.9898 8.49013 10.5714 9.20795 10.0001 9.79432C9.9899 9.80209 9.98035 9.81069 9.97155 9.82004C9.95847 9.8327 9.94607 9.84605 9.93441 9.86004C9.23494 10.5554 8.34502 11.0279 7.37712 11.2177C6.40921 11.4075 5.40677 11.3061 4.49649 10.9263C3.5862 10.5465 2.80892 9.90542 2.26288 9.08402C1.71684 8.26262 1.42655 7.29779 1.42869 6.31147Z" fill="#D4652E"/>
</g>
<defs>
<clipPath id="clip0">
<rect width="16" height="15.7143" fill="white" transform="translate(0 0.142883)"/>
</clipPath>
</defs>
</svg>
